<svg width="18" height="12" viewBox="0 0 18 12" fill="none" xmlns="http://www.w3.org/2000/svg">
<path d="M0 5.75048C2.67838e-06 6.12404 0.165654 6.47061 0.322519 6.73083C0.491796 7.01165 0.719444 7.30158 0.969183 7.58426C1.47018 8.15133 2.12387 8.76031 2.75824 9.31118C3.39633 9.86528 4.03222 10.3755 4.50725 10.7463C4.74516 10.932 4.94364 11.0834 5.08304 11.1887C5.15276 11.2414 5.20776 11.2826 5.24558 11.3107L5.28915 11.3431L5.30071 11.3517L5.30472 11.3546C5.63822 11.6003 6.10816 11.5294 6.35382 11.1959C6.59947 10.8624 6.52828 10.3929 6.19482 10.1473L6.18209 10.1379L6.14204 10.1081C6.10662 10.0817 6.0542 10.0425 5.9872 9.99184C5.85317 9.89059 5.66103 9.74399 5.43019 9.56382C4.96772 9.20285 4.35363 8.70995 3.74173 8.1786C3.12611 7.64401 2.52981 7.08518 2.09331 6.59111C2.0657 6.55986 2.03899 6.52915 2.01316 6.499L16.75 6.49899C17.1642 6.49899 17.5 6.16321 17.5 5.74899C17.5 5.33478 17.1642 4.99899 16.75 4.99899L2.0157 4.999C2.04073 4.96979 2.06661 4.94006 2.09331 4.90984C2.52981 4.41577 3.12611 3.85694 3.74173 3.32235C4.35363 2.79099 4.96772 2.2981 5.43019 1.93713C5.66102 1.75695 5.85317 1.61036 5.9872 1.50911C6.05419 1.4585 6.10662 1.41925 6.14203 1.39285L6.18208 1.36308L6.19481 1.35367C6.52828 1.108 6.59947 0.638521 6.35382 0.305035C6.10815 -0.0284672 5.63822 -0.0993577 5.30472 0.146304L5.30071 0.149264L5.28915 0.157818L5.24558 0.190203C5.20776 0.218397 5.15276 0.259569 5.08304 0.312239C4.94363 0.41755 4.74516 0.568986 4.50725 0.754683C4.03222 1.12546 3.39633 1.63567 2.75823 2.18977C2.12387 2.74064 1.47018 3.34962 0.969183 3.91669C0.719444 4.19937 0.491796 4.4893 0.322519 4.77012C0.166597 5.02878 0.00199246 5.37276 1.71655e-05 5.74375" fill="#161616"/>
</svg>
