<svg width="18" height="13" viewBox="0 0 18 13" fill="none" xmlns="http://www.w3.org/2000/svg">
<path fill-rule="evenodd" clip-rule="evenodd" d="M8.95833 9.58333C7.23244 9.58333 5.83333 8.18422 5.83333 6.45833C5.83333 4.73244 7.23244 3.33333 8.95833 3.33333C10.6842 3.33333 12.0833 4.73244 12.0833 6.45833C12.0833 8.18422 10.6842 9.58333 8.95833 9.58333ZM7.08333 6.45833C7.08333 7.49387 7.9228 8.33333 8.95833 8.33333C9.99387 8.33333 10.8333 7.49387 10.8333 6.45833C10.8333 5.4228 9.99387 4.58333 8.95833 4.58333C7.9228 4.58333 7.08333 5.4228 7.08333 6.45833Z" fill="white"/>
<path fill-rule="evenodd" clip-rule="evenodd" d="M8.95833 0C6.8162 0 4.97996 0.94284 3.55859 2.05249C2.13594 3.16313 1.08439 4.47478 0.496175 5.2996L0.451826 5.36145C0.240863 5.65485 0 5.98983 0 6.45833C0 6.92684 0.240863 7.26182 0.451827 7.55522L0.496176 7.61707C1.08439 8.44188 2.13594 9.75354 3.55859 10.8642C4.97996 11.9738 6.8162 12.9167 8.95833 12.9167C11.1005 12.9167 12.9367 11.9738 14.3581 10.8642C15.7807 9.75354 16.8323 8.44188 17.4205 7.61707L17.4648 7.55522C17.6758 7.26182 17.9167 6.92684 17.9167 6.45833C17.9167 5.98983 17.6758 5.65484 17.4648 5.36144L17.4205 5.2996C16.8323 4.47478 15.7807 3.16313 14.3581 2.05249C12.9367 0.942839 11.1005 0 8.95833 0ZM1.51389 6.02538C2.06406 5.25391 3.03531 4.04681 4.3278 3.03779C5.62156 2.02776 7.19278 1.25 8.95833 1.25C10.7239 1.25 12.2951 2.02776 13.5889 3.03779C14.8814 4.04681 15.8526 5.2539 16.4028 6.02538C16.5389 6.21623 16.6037 6.30942 16.6423 6.3836C16.6668 6.43076 16.6667 6.44368 16.6667 6.45634L16.6667 6.45833L16.6667 6.46033C16.6667 6.47298 16.6668 6.48591 16.6423 6.53307C16.6037 6.60725 16.5389 6.70044 16.4028 6.89129C15.8526 7.66276 14.8814 8.86985 13.5889 9.87888C12.2951 10.8889 10.7239 11.6667 8.95833 11.6667C7.19278 11.6667 5.62156 10.8889 4.3278 9.87888C3.03531 8.86985 2.06406 7.66276 1.51389 6.89129C1.37779 6.70044 1.31302 6.60725 1.2744 6.53307C1.24986 6.48591 1.24993 6.47298 1.24999 6.46033L1.25 6.45833L1.24999 6.45634C1.24993 6.44368 1.24986 6.43076 1.2744 6.3836C1.31302 6.30942 1.37779 6.21623 1.51389 6.02538Z" fill="white"/>
</svg>
