<svg width="15" height="17" viewBox="0 0 15 17" fill="none" xmlns="http://www.w3.org/2000/svg">
<path d="M7.2867 16.2504C7.23754 16.2504 7.18835 16.2446 7.13835 16.2329C6.80335 16.1512 6.59753 15.8129 6.6792 15.4779C6.76337 15.1321 7.16582 13.9471 8.80249 13.2362C8.82166 13.2279 8.84165 13.2203 8.86165 13.2137C8.88582 13.2028 8.91416 13.1904 8.94832 13.1787C9.64499 12.922 10.5075 12.4854 10.835 12.2221C10.8509 12.2096 10.8675 12.1971 10.885 12.1863L13.2142 10.6662C13.255 10.6287 13.2542 10.6104 13.2533 10.6037C13.25 10.5437 13.1825 10.4179 13.04 10.3254C11.9942 9.62958 11.0275 10.0337 9.55916 10.782C9.45833 10.8337 9.35751 10.8854 9.25667 10.9354C8.46251 11.3287 7.4842 11.2704 6.70003 10.7837C5.95587 10.3221 5.51172 9.55286 5.51172 8.72702C5.51172 7.90119 5.95589 7.12623 6.76172 6.57956C7.89172 5.81373 9.58919 5.57124 10.7284 6.00958L12.53 6.53537C12.6984 6.58537 12.8725 6.56624 13.0216 6.48207C13.1666 6.4004 13.2692 6.26874 13.3109 6.11041C13.3892 5.81791 13.2258 5.51537 12.9316 5.4037L10.9675 4.6712C10.9675 4.6712 10.9642 4.66951 10.9617 4.66868L10.2201 4.44122C9.61005 4.25872 9.16917 4.19118 8.84001 4.23118C8.28417 4.30034 6.79755 4.95705 5.99089 5.35455C5.68172 5.50705 5.30672 5.38037 5.15422 5.07037C5.00172 4.7612 5.12831 4.3862 5.43831 4.2337C5.67081 4.1187 7.73998 3.1087 8.68831 2.99037C9.19665 2.9287 9.79833 3.01042 10.5833 3.24542L11.3417 3.47792C11.35 3.48042 11.3584 3.48289 11.3667 3.48622C11.3734 3.48872 11.3809 3.49121 11.3875 3.49371L11.3992 3.49786C11.5517 3.55286 11.715 3.54536 11.86 3.47702C12.0117 3.40619 12.125 3.27791 12.18 3.11708C12.2875 2.80791 12.135 2.47123 11.8325 2.34706L10.25 1.69285L10.115 1.64288C9.66749 1.47788 9.42082 1.38784 9.19832 1.33534C8.92166 1.27201 8.61504 1.24286 8.29004 1.25119L8.26668 1.2529C8.18502 1.2579 8.13921 1.26124 7.96004 1.29791C7.95338 1.29957 7.94669 1.30041 7.94002 1.30124C7.76252 1.33124 7.66332 1.36453 7.44499 1.43869L7.01668 1.58453C5.59085 2.06953 5.00005 2.27037 4.38672 2.7162C2.76089 3.90203 1.775 5.25201 1.52083 6.06451C1.25 6.93118 1.25 7.99619 1.25 10.1195L1.25 15.6279C1.25 15.9729 0.97 16.2529 0.625 16.2529C0.28 16.2529 0 15.9729 0 15.6279L0 10.1195C0 7.87035 -2.60472e-05 6.7412 0.327474 5.69203C0.795807 4.1987 2.35088 2.65452 3.65088 1.70619C4.41921 1.14869 5.15251 0.898741 6.61418 0.402074L7.045 0.255345C7.28084 0.175345 7.45253 0.117849 7.72087 0.071182C7.95837 0.023682 8.055 0.0145739 8.18416 0.00624059L8.21753 0.0037178C8.2267 0.0037178 8.23497 0.00284215 8.24414 0.00200882C8.67997 -0.00965785 9.09588 0.0295609 9.48088 0.117894C9.78004 0.187894 10.0525 0.287871 10.5467 0.469538L10.6934 0.523737C10.7009 0.527071 10.7092 0.529519 10.7167 0.532852L12.3092 1.19122C13.2242 1.56705 13.6875 2.59205 13.3625 3.52455C13.2892 3.74038 13.1783 3.93705 13.0383 4.10788L13.3734 4.23288C14.2734 4.57372 14.7658 5.51789 14.5208 6.43039C14.3933 6.91623 14.0792 7.32202 13.6367 7.57118C13.1901 7.82285 12.6725 7.88118 12.1792 7.73451L10.3534 7.20204C10.3342 7.19621 10.315 7.18958 10.2967 7.18292C9.53505 6.87875 8.26501 7.07289 7.46501 7.61456C7.00001 7.92956 6.76416 8.30452 6.76416 8.72702C6.76416 9.12369 6.98165 9.48623 7.36165 9.72206C7.78082 9.98206 8.29416 10.0187 8.70166 9.81703C8.79749 9.7687 8.89587 9.71868 8.99504 9.66868C10.3367 8.98534 12.0067 8.13454 13.7317 9.28204C14.1892 9.58037 14.48 10.0521 14.505 10.5404C14.5275 10.9696 14.3425 11.3653 13.9858 11.6545C13.9692 11.6678 13.9517 11.6804 13.9342 11.692L11.5967 13.2179C11.0942 13.6104 10.0983 14.0896 9.39331 14.3496L9.38167 14.3562C9.34334 14.3762 9.30337 14.392 9.26253 14.4037C9.0242 14.5137 8.09 14.992 7.89917 15.7754C7.83 16.0612 7.57415 16.2529 7.29248 16.2529L7.2867 16.2504ZM9.35417 14.3604C9.35417 14.3604 9.35419 14.3604 9.35335 14.3604C9.35335 14.3604 9.35333 14.3604 9.35417 14.3604Z" fill="white"/>
</svg>
