<svg width="15" height="18" viewBox="0 0 15 18" fill="none" xmlns="http://www.w3.org/2000/svg">
<path fill-rule="evenodd" clip-rule="evenodd" d="M7.29167 12.9167C9.93803 12.9167 12.0833 10.7714 12.0833 8.125V4.79167C12.0833 2.1453 9.93803 0 7.29167 0C4.6453 0 2.5 2.1453 2.5 4.79167V8.125C2.5 10.7714 4.6453 12.9167 7.29167 12.9167ZM7.29167 1.25C5.33566 1.25 3.75 2.83566 3.75 4.79167V8.125C3.75 10.081 5.33566 11.6667 7.29167 11.6667C9.03441 11.6667 10.4832 10.4079 10.7784 8.75H8.95833C8.61316 8.75 8.33333 8.47018 8.33333 8.125C8.33333 7.77982 8.61316 7.5 8.95833 7.5H10.8333V5.41667H8.95833C8.61316 5.41667 8.33333 5.13684 8.33333 4.79167C8.33333 4.44649 8.61316 4.16667 8.95833 4.16667H10.7784C10.4832 2.50874 9.03441 1.25 7.29167 1.25Z" fill="#161616"/>
<path d="M1.25 8.125C1.25 7.77982 0.970178 7.5 0.625 7.5C0.279822 7.5 0 7.77982 0 8.125C0 11.9415 2.93217 15.0732 6.66667 15.3903V16.6667H4.79167C4.44649 16.6667 4.16667 16.9465 4.16667 17.2917C4.16667 17.6368 4.44649 17.9167 4.79167 17.9167H9.79167C10.1368 17.9167 10.4167 17.6368 10.4167 17.2917C10.4167 16.9465 10.1368 16.6667 9.79167 16.6667H7.91667V15.3903C11.6512 15.0732 14.5833 11.9415 14.5833 8.125C14.5833 7.77982 14.3035 7.5 13.9583 7.5C13.6132 7.5 13.3333 7.77982 13.3333 8.125C13.3333 11.4617 10.6284 14.1667 7.29167 14.1667C3.95495 14.1667 1.25 11.4617 1.25 8.125Z" fill="#161616"/>
</svg>
