<svg width="20" height="22" viewBox="0 0 20 22" fill="none" xmlns="http://www.w3.org/2000/svg">
<path fill-rule="evenodd" clip-rule="evenodd" d="M9.75 0C6.8505 0 4.5 2.3505 4.5 5.25C4.5 8.14949 6.8505 10.5 9.75 10.5C12.6495 10.5 15 8.14949 15 5.25C15 2.3505 12.6495 0 9.75 0ZM6 5.25C6 3.17893 7.67893 1.5 9.75 1.5C11.8211 1.5 13.5 3.17893 13.5 5.25C13.5 7.32107 11.8211 9 9.75 9C7.67893 9 6 7.32107 6 5.25Z" fill="#161616"/>
<path fill-rule="evenodd" clip-rule="evenodd" d="M15.9788 13.8292C15.8162 13.7374 15.6726 13.6564 15.5563 13.5872C12.0023 11.4709 7.49809 11.4709 3.94404 13.5872C3.82773 13.6564 3.68405 13.7375 3.52139 13.8293C2.80857 14.2314 1.73106 14.8393 0.992896 15.5618C0.531228 16.0137 0.092574 16.6092 0.0128283 17.3388C-0.0719782 18.1146 0.266485 18.8427 0.945503 19.4896C2.11695 20.6056 3.52274 21.5 5.34104 21.5H14.1593C15.9776 21.5 17.3834 20.6056 18.5548 19.4896C19.2339 18.8427 19.5723 18.1146 19.4875 17.3388C19.4078 16.6092 18.9691 16.0137 18.5075 15.5618C17.7693 14.8393 16.6917 14.2313 15.9788 13.8292ZM4.71146 14.876C7.79264 13.0413 11.7077 13.0413 14.7889 14.876C14.9568 14.976 15.1407 15.0803 15.3334 15.1897C16.046 15.5939 16.8781 16.066 17.4582 16.6338C17.8183 16.9863 17.9718 17.2771 17.9964 17.5017C18.0159 17.6801 17.9708 17.9742 17.5202 18.4035C16.4843 19.3904 15.4318 20 14.1593 20H5.34104C4.0686 20 3.01602 19.3904 1.98017 18.4035C1.52954 17.9742 1.48445 17.6801 1.50395 17.5017C1.52851 17.2771 1.68202 16.9863 2.04214 16.6338C2.62223 16.066 3.45426 15.594 4.16686 15.1897C4.35953 15.0804 4.5436 14.976 4.71146 14.876Z" fill="#161616"/>
</svg>
