<svg width="17" height="17" viewBox="0 0 17 17" fill="none" xmlns="http://www.w3.org/2000/svg">
<path fill-rule="evenodd" clip-rule="evenodd" d="M0.068526 0.340467C0.175376 0.131494 0.390297 0 0.625003 0H4.79167C4.99236 0 5.18084 0.0963732 5.29834 0.259068L9.41167 5.95445L15.1831 0.183058C15.4271 -0.0610194 15.8229 -0.0610194 16.0669 0.183058C16.311 0.427136 16.311 0.822864 16.0669 1.06694L10.153 6.98089L16.1317 15.2591C16.2691 15.4493 16.2883 15.7006 16.1815 15.9095C16.0746 16.1185 15.8597 16.25 15.625 16.25H11.4583C11.2576 16.25 11.0692 16.1536 10.9517 15.9909L6.83833 10.2956L1.06694 16.0669C0.822867 16.311 0.427139 16.311 0.183061 16.0669C-0.0610168 15.8229 -0.0610168 15.4271 0.183061 15.1831L6.09701 9.26911L0.118328 0.990932C-0.0190899 0.800661 -0.0383243 0.54944 0.068526 0.340467ZM1.84735 1.25L11.7779 15H14.4027L4.4721 1.25H1.84735Z" fill="white"/>
</svg>
