<svg width="18" height="18" viewBox="0 0 18 18" fill="none" xmlns="http://www.w3.org/2000/svg">
<path d="M8.75 5.20833C8.75 4.86316 8.47018 4.58333 8.125 4.58333C7.77982 4.58333 7.5 4.86316 7.5 5.20833V7.5H5.20833C4.86316 7.5 4.58333 7.77982 4.58333 8.125C4.58333 8.47018 4.86316 8.75 5.20833 8.75H7.5V11.0417C7.5 11.3868 7.77982 11.6667 8.125 11.6667C8.47018 11.6667 8.75 11.3868 8.75 11.0417V8.75H11.0417C11.3868 8.75 11.6667 8.47018 11.6667 8.125C11.6667 7.77982 11.3868 7.5 11.0417 7.5H8.75V5.20833Z" fill="white"/>
<path fill-rule="evenodd" clip-rule="evenodd" d="M0 8.125C0 3.63769 3.63769 0 8.125 0C12.6123 0 16.25 3.63769 16.25 8.125C16.25 10.1437 15.5138 11.9904 14.2953 13.4114L17.7336 16.8497C17.9777 17.0938 17.9777 17.4895 17.7336 17.7336C17.4895 17.9777 17.0938 17.9777 16.8497 17.7336L13.4114 14.2953C11.9904 15.5138 10.1437 16.25 8.125 16.25C3.63769 16.25 0 12.6123 0 8.125ZM8.125 1.25C4.32804 1.25 1.25 4.32804 1.25 8.125C1.25 11.922 4.32804 15 8.125 15C11.922 15 15 11.922 15 8.125C15 4.32804 11.922 1.25 8.125 1.25Z" fill="white"/>
</svg>
